<?xml version="1.0" standalone="no"?>
<!DOCTYPE svg PUBLIC "-//W3C//DTD SVG 20010904//EN"
 "http://www.w3.org/TR/2001/REC-SVG-20010904/DTD/svg10.dtd">
<svg version="1.0" xmlns="http://www.w3.org/2000/svg"
 width="2588.000000pt" height="2588.000000pt" viewBox="0 0 2588.000000 2588.000000"
 preserveAspectRatio="xMidYMid meet">
<metadata>
Created by potrace 1.14, written by Peter Selinger 2001-2017
</metadata>
<g transform="translate(0.000000,2588.000000) scale(0.100000,-0.100000)"
fill="#000000" stroke="none">
<path d="M12585 25860 c-60 -10 -158 -42 -240 -78 -75 -33 -329 -187 -478
-290 -61 -42 -263 -176 -447 -297 -184 -121 -404 -265 -487 -320 -285 -187
-598 -392 -743 -487 -80 -52 -199 -130 -265 -173 -314 -205 -476 -311 -545
-356 -304 -198 -397 -259 -407 -268 -7 -6 -15 -11 -19 -11 -4 0 -29 -16 -55
-35 -27 -19 -53 -35 -57 -35 -5 0 -17 -9 -27 -20 -10 -11 -22 -20 -26 -20 -5
0 -79 -46 -166 -103 -151 -99 -226 -147 -407 -264 -45 -28 -86 -56 -93 -62 -7
-6 -15 -11 -17 -11 -3 0 -56 -33 -118 -73 -62 -40 -218 -140 -346 -223 -127
-82 -278 -179 -335 -216 -56 -37 -109 -71 -117 -75 -8 -4 -71 -43 -140 -88
-69 -45 -159 -103 -200 -130 -233 -150 -632 -414 -640 -424 -3 -3 -17 -12 -32
-20 -16 -8 -28 -18 -28 -23 0 -4 -9 -8 -20 -8 -10 0 -23 -6 -27 -13 -4 -7 -26
-24 -48 -37 -22 -13 -42 -26 -45 -29 -3 -4 -14 -13 -24 -21 -18 -13 -19 -13
-11 0 5 10 2 9 -11 -3 -26 -24 -93 -67 -104 -67 -6 0 -10 -4 -10 -10 0 -5 -11
-12 -25 -16 -14 -3 -25 -10 -25 -15 0 -5 -5 -9 -10 -9 -6 0 -20 -9 -32 -20
-12 -10 -25 -17 -30 -14 -4 3 -8 1 -8 -5 0 -6 -16 -18 -35 -27 -19 -9 -35 -20
-35 -25 0 -5 -7 -9 -15 -9 -8 0 -15 -4 -15 -8 0 -5 -12 -15 -27 -23 -16 -8
-30 -16 -33 -19 -3 -3 -27 -24 -55 -45 -220 -175 -307 -301 -399 -578 -83
-247 -91 -503 -25 -757 32 -122 101 -301 125 -321 8 -6 14 -17 14 -24 0 -56
262 -322 399 -404 317 -192 655 -381 682 -381 17 0 36 -8 47 -21 41 -49 70
-75 102 -92 19 -10 53 -29 75 -42 22 -14 50 -25 62 -25 12 0 24 -4 28 -10 18
-28 531 -339 910 -550 22 -12 69 -39 105 -60 36 -21 135 -76 220 -123 85 -46
601 -344 1145 -662 545 -318 1004 -586 1020 -595 17 -9 127 -74 245 -142 118
-69 235 -137 260 -152 25 -14 74 -42 110 -62 36 -21 108 -63 160 -95 52 -31
111 -66 130 -77 19 -10 166 -93 325 -184 288 -164 334 -190 430 -243 56 -31
372 -211 395 -225 8 -5 60 -36 115 -68 55 -32 222 -131 370 -219 328 -195 484
-286 635 -371 63 -35 127 -73 142 -83 15 -11 30 -19 33 -19 13 0 558 -318 998
-581 137 -82 251 -149 254 -149 3 0 17 -9 33 -20 28 -20 559 -330 565 -330 2
0 59 -32 127 -71 67 -39 139 -81 158 -92 62 -35 234 -129 255 -138 11 -5 36
-19 55 -30 37 -23 1232 -718 1290 -751 19 -11 87 -51 150 -88 63 -37 149 -87
190 -111 41 -24 83 -48 92 -54 87 -51 244 -141 253 -144 5 -2 12 -7 15 -10 3
-4 16 -12 30 -19 14 -6 34 -18 45 -24 11 -7 21 -13 22 -14 1 0 -2 -17 -8 -37
-6 -25 -19 -42 -38 -52 -26 -13 -46 -40 -43 -57 1 -3 -6 -5 -16 -3 -23 3 -22
4 -290 -172 -130 -85 -317 -208 -415 -272 -97 -64 -261 -171 -363 -238 -203
-134 -414 -266 -484 -303 -55 -29 -1354 -892 -1358 -902 -2 -5 -7 -8 -12 -8
-11 0 -202 -122 -520 -332 -792 -523 -861 -568 -1095 -713 -208 -129 -312
-188 -374 -210 l-44 -15 -171 88 c-178 93 -305 167 -441 257 -44 29 -237 143
-430 253 -192 110 -366 209 -385 221 -19 11 -42 24 -50 28 -8 4 -69 38 -135
76 -66 39 -140 81 -165 95 -25 14 -88 50 -140 80 -52 31 -115 66 -139 79 -37
20 -175 99 -231 132 -25 15 -653 375 -675 387 -11 6 -256 146 -545 311 -289
165 -541 309 -560 320 -19 11 -141 81 -270 155 -293 168 -314 180 -425 238
-49 26 -119 65 -155 88 -107 67 -232 143 -280 170 -208 117 -344 192 -347 192
-3 0 -35 17 -71 39 -37 21 -110 61 -164 89 -136 72 -416 234 -517 300 -69 44
-540 316 -751 434 -25 14 -101 62 -170 107 -247 163 -377 209 -577 206 -231
-5 -429 -101 -554 -270 -171 -229 -183 -573 -29 -802 97 -146 201 -227 495
-388 88 -48 201 -111 250 -140 50 -29 144 -82 210 -117 151 -82 194 -106 225
-128 14 -9 63 -38 110 -65 47 -26 100 -56 118 -66 18 -11 66 -38 105 -60 40
-22 145 -86 235 -142 347 -217 503 -307 1302 -747 190 -104 466 -258 585 -325
105 -59 245 -142 381 -226 78 -48 174 -106 213 -128 39 -23 104 -60 144 -83
39 -23 97 -55 127 -72 31 -17 136 -76 233 -131 98 -55 199 -112 225 -126 26
-14 76 -43 112 -64 36 -21 85 -49 110 -63 25 -14 59 -33 75 -43 17 -10 46 -26
65 -37 19 -11 161 -91 315 -179 154 -88 330 -186 390 -218 61 -32 127 -69 147
-82 21 -12 39 -23 42 -23 5 0 184 -105 446 -261 124 -73 234 -139 245 -145 11
-6 106 -63 210 -126 547 -331 834 -490 1025 -568 150 -60 154 -61 263 -64 72
-3 108 1 207 19 75 14 212 93 586 341 216 142 510 335 655 427 145 92 372 239
504 327 344 228 679 445 835 540 243 149 343 212 485 305 77 50 181 118 230
150 108 70 284 185 415 270 117 76 488 317 630 410 58 37 155 100 215 140 61
40 454 296 875 570 421 274 809 527 863 564 177 119 392 260 406 267 36 18
190 119 280 183 205 148 336 328 421 581 73 217 97 393 77 581 -36 347 -236
690 -517 886 -140 97 -414 261 -1015 608 -132 76 -256 148 -275 160 -29 18
-164 96 -525 305 -189 108 -559 324 -670 390 -77 46 -153 91 -170 100 -16 9
-52 31 -80 47 -400 239 -1053 624 -1143 675 -21 11 -82 46 -137 78 -109 63
-157 90 -225 128 -25 14 -74 41 -110 62 -36 20 -101 56 -145 80 -44 24 -105
56 -135 73 -30 16 -80 43 -110 60 -30 16 -59 33 -65 37 -5 4 -26 17 -45 27
-19 11 -237 138 -485 283 -247 144 -468 273 -490 286 -189 108 -492 285 -502
294 -7 5 -15 10 -18 10 -3 0 -22 11 -43 23 -20 13 -57 35 -82 49 -25 14 -61
34 -80 45 -93 54 -1037 605 -1050 613 -8 5 -28 16 -45 25 -43 21 -102 55 -168
98 -31 20 -93 55 -137 77 -43 22 -150 83 -237 136 -87 53 -178 108 -203 121
-25 14 -49 29 -55 33 -34 26 -685 402 -1220 705 -192 109 -403 229 -468 267
-65 37 -120 68 -123 68 -2 0 -23 12 -45 26 -23 14 -62 37 -87 51 -26 15 -60
34 -77 44 -16 10 -52 30 -80 45 -27 15 -61 34 -75 44 -14 9 -50 31 -80 47 -47
26 -271 156 -450 262 -30 18 -62 36 -70 41 -8 5 -87 51 -175 103 -88 52 -176
104 -195 115 -48 27 -631 370 -650 382 -8 5 -38 23 -67 39 -82 48 -77 55 157
221 109 78 144 101 400 258 172 105 174 106 553 356 147 97 272 176 277 176 4
0 10 3 12 8 4 9 244 168 468 309 97 61 230 147 298 192 67 44 124 81 126 81 3
0 65 40 138 88 73 48 250 163 393 256 227 146 634 410 920 595 303 197 366
238 425 276 328 214 713 463 748 483 29 16 59 24 92 25 66 1 139 -36 480 -241
146 -87 301 -178 345 -202 44 -24 109 -61 144 -82 34 -21 64 -38 66 -38 1 0
85 -47 185 -105 100 -58 184 -105 185 -105 2 0 32 -17 66 -38 35 -22 89 -53
119 -69 74 -42 511 -291 530 -302 14 -9 367 -212 450 -259 19 -11 154 -88 300
-172 146 -84 285 -164 310 -178 89 -50 366 -210 418 -241 29 -17 55 -31 58
-31 2 0 23 -12 46 -26 23 -14 60 -36 82 -49 23 -12 91 -50 151 -85 61 -35 139
-80 175 -100 55 -31 304 -174 535 -308 33 -19 80 -46 105 -60 25 -14 198 -113
385 -220 187 -108 357 -205 377 -216 20 -12 88 -50 150 -86 62 -36 138 -79
168 -96 30 -17 206 -118 390 -224 184 -106 355 -204 380 -218 25 -14 102 -58
171 -98 70 -40 137 -78 150 -86 13 -7 26 -15 29 -18 3 -3 16 -11 29 -18 13 -8
80 -46 150 -86 102 -59 241 -135 341 -187 44 -23 162 -65 206 -73 127 -24 218
-24 307 -1 34 9 67 18 72 19 27 6 135 68 169 98 105 88 197 212 236 316 51
134 59 293 21 429 -31 114 -124 268 -195 326 -81 66 -540 364 -616 400 -8 4
-28 15 -45 26 -159 98 -754 440 -945 543 -128 70 -424 233 -522 288 -14 8
-144 83 -287 165 -144 83 -269 155 -279 160 -164 92 -231 131 -252 144 -14 9
-34 21 -45 26 -21 12 -740 423 -1065 610 -107 62 -215 123 -240 137 -25 14
-106 60 -180 103 -74 43 -370 212 -656 376 -287 164 -537 307 -555 317 -19 11
-220 126 -448 256 -227 130 -556 321 -730 425 -383 228 -762 451 -769 451 -2
0 -30 15 -61 34 -89 54 -300 160 -376 190 -60 24 -87 28 -190 31 -66 2 -142 0
-170 -5z"/>
<path d="M12830 22848 c-47 -4 -125 -19 -175 -34 -93 -26 -386 -153 -679 -294
-92 -44 -169 -80 -170 -80 -2 0 -72 -33 -157 -74 -85 -40 -179 -85 -209 -99
-30 -14 -118 -55 -195 -92 -121 -58 -248 -116 -535 -247 -203 -93 -311 -159
-400 -248 -74 -72 -120 -147 -152 -245 -103 -316 -29 -552 242 -764 48 -38
280 -181 293 -181 5 0 37 -18 179 -98 18 -11 85 -50 148 -87 63 -37 128 -75
143 -84 16 -9 36 -20 46 -26 132 -78 373 -217 471 -272 117 -65 677 -384 710
-404 8 -5 69 -40 135 -77 66 -38 199 -114 295 -169 96 -56 191 -110 210 -120
32 -19 160 -92 400 -231 52 -30 109 -63 126 -73 18 -9 128 -72 245 -140 118
-67 234 -133 259 -147 25 -14 61 -36 80 -49 19 -12 38 -23 43 -23 4 0 26 -12
49 -26 45 -28 346 -203 413 -240 22 -12 83 -47 136 -77 53 -31 119 -69 146
-84 59 -33 521 -300 543 -314 17 -10 523 -300 585 -334 22 -13 107 -62 189
-109 82 -47 151 -86 154 -86 3 0 13 -6 21 -14 9 -7 45 -29 81 -48 98 -53 380
-216 513 -297 65 -39 119 -71 121 -71 2 0 50 -27 105 -60 56 -33 104 -60 106
-60 3 0 22 -11 43 -23 20 -13 57 -35 82 -49 25 -14 133 -76 240 -138 107 -61
213 -122 235 -135 38 -21 559 -321 1085 -623 129 -74 249 -143 265 -152 178
-101 521 -300 561 -325 80 -51 284 -152 334 -166 67 -18 153 -13 208 11 52 23
125 89 150 135 40 75 46 177 16 269 -30 94 -53 119 -196 204 -149 89 -1001
583 -1383 802 -137 78 -262 151 -277 161 -15 11 -29 19 -32 19 -3 0 -43 22
-88 49 -120 70 -725 419 -778 449 -25 13 -70 39 -100 57 -30 18 -147 86 -260
150 -113 65 -320 184 -460 265 -141 81 -276 158 -300 172 -25 14 -117 67 -205
118 -88 51 -173 101 -190 110 -16 9 -138 79 -270 155 -353 203 -743 428 -795
457 -25 14 -191 110 -370 213 -755 436 -1036 598 -1055 609 -48 27 -249 143
-278 160 -18 10 -185 106 -372 214 -187 107 -351 202 -365 211 -14 8 -34 21
-45 26 -11 6 -193 112 -405 235 -212 123 -399 231 -417 241 -17 10 -50 29 -72
43 -22 15 -44 26 -48 26 -3 0 -14 6 -22 14 -9 8 -56 35 -105 61 -120 63 -129
69 -122 92 7 21 86 64 206 111 41 17 226 106 410 199 426 216 592 287 666 285
19 -1 67 -23 120 -55 132 -80 873 -521 918 -547 22 -12 64 -37 93 -56 29 -19
55 -34 57 -34 2 0 88 -51 192 -113 257 -154 734 -439 759 -453 11 -6 134 -79
274 -162 139 -84 255 -152 258 -152 3 0 17 -8 31 -19 15 -10 77 -48 137 -83
206 -121 740 -440 775 -462 82 -53 221 -142 237 -151 25 -14 457 -271 518
-308 43 -26 696 -414 1295 -770 258 -153 374 -223 455 -275 71 -46 276 -171
330 -202 17 -9 135 -78 263 -153 128 -76 235 -137 237 -137 3 0 24 -9 48 -19
224 -101 464 -80 648 56 274 204 386 586 249 853 -73 144 -429 416 -920 704
-91 53 -172 101 -180 106 -8 6 -22 13 -30 17 -8 4 -48 26 -88 50 -41 24 -75
43 -77 43 -10 0 -861 502 -965 570 -66 43 -122 79 -246 155 -70 43 -780 471
-799 481 -11 6 -94 55 -185 109 -91 54 -178 106 -195 115 -29 15 -254 148
-403 236 -40 24 -75 44 -77 44 -3 0 -36 20 -75 45 -39 25 -73 45 -76 45 -3 0
-46 25 -96 56 -49 30 -99 59 -111 64 -12 5 -209 123 -437 261 -228 138 -428
259 -445 268 -16 10 -219 132 -450 271 -231 139 -697 419 -1035 623 -338 204
-644 383 -680 398 -70 30 -98 37 -175 45 -27 3 -54 6 -60 8 -5 1 -48 -2 -95
-6z"/>
<path d="M5538 17915 c-2 -2 -22 -5 -45 -7 -76 -9 -158 -74 -194 -153 -41 -92
-22 -214 45 -287 28 -30 166 -128 181 -128 4 0 350 -202 470 -275 61 -37 651
-377 775 -447 25 -14 112 -64 194 -112 82 -47 150 -86 152 -86 1 0 32 -18 68
-40 36 -22 68 -40 71 -40 2 0 29 -16 59 -35 30 -19 57 -35 60 -35 5 0 144 -79
176 -100 8 -5 38 -22 65 -37 28 -15 58 -32 68 -38 9 -5 111 -64 225 -129 114
-66 340 -196 502 -289 162 -93 315 -181 340 -195 25 -14 107 -61 182 -104 75
-43 139 -78 142 -78 11 0 274 -155 331 -195 33 -23 101 -66 150 -95 50 -29
137 -81 195 -115 107 -64 253 -148 370 -215 36 -20 148 -86 250 -145 102 -59
204 -118 227 -131 23 -13 108 -63 190 -110 81 -48 164 -95 183 -106 19 -11 64
-37 100 -58 36 -21 82 -47 103 -59 88 -49 108 -61 172 -100 37 -23 68 -41 70
-41 2 0 113 -64 247 -141 133 -78 263 -153 288 -167 25 -14 97 -55 160 -92 63
-37 135 -79 160 -92 25 -14 144 -83 265 -153 121 -70 234 -135 250 -145 116
-66 1012 -587 1190 -692 275 -163 462 -278 475 -292 6 -8 -34 -30 -138 -75
-81 -35 -171 -75 -200 -87 -29 -13 -55 -24 -58 -24 -3 0 -30 -11 -60 -25 -30
-14 -57 -25 -59 -25 -3 0 -24 -9 -48 -19 -23 -11 -71 -32 -107 -46 -36 -15
-78 -33 -95 -40 -16 -7 -79 -35 -140 -60 -60 -26 -179 -79 -263 -117 -156 -71
-213 -85 -254 -64 -41 23 -279 160 -388 226 -8 5 -67 39 -130 76 -63 37 -160
97 -215 133 -95 61 -249 155 -325 198 -31 18 -269 162 -563 342 -59 36 -118
73 -132 81 -13 8 -131 80 -260 160 -130 80 -248 152 -263 161 -36 21 -180 109
-317 194 -60 37 -122 75 -137 84 -15 9 -96 58 -180 110 -212 130 -404 248
-493 301 -41 25 -162 98 -268 163 -105 65 -201 123 -212 130 -10 7 -37 23 -60
37 -22 14 -44 27 -50 30 -5 3 -65 39 -133 80 -67 41 -130 80 -140 85 -9 6
-147 89 -306 185 -159 96 -312 189 -340 205 -28 17 -145 86 -259 155 -114 69
-222 133 -239 144 -44 24 -294 172 -443 261 -167 100 -674 395 -678 395 -2 0
-42 22 -88 48 -207 119 -429 232 -504 257 -59 19 -204 26 -299 13 -271 -36
-482 -222 -561 -493 -62 -215 -13 -465 124 -635 84 -105 146 -149 441 -318 39
-22 656 -386 680 -401 8 -5 78 -47 155 -92 77 -46 297 -177 489 -291 191 -115
352 -208 357 -208 5 0 9 -4 9 -10 0 -5 4 -10 10 -10 5 0 42 -20 82 -44 40 -25
546 -328 1123 -674 578 -346 1280 -768 1560 -937 281 -169 526 -317 546 -329
20 -11 238 -142 483 -291 246 -148 460 -278 477 -287 16 -10 130 -78 252 -152
376 -226 520 -303 714 -380 287 -114 559 -132 818 -55 57 17 518 223 935 416
41 20 93 43 115 53 22 10 74 33 115 53 41 19 167 76 280 127 468 210 689 329
781 420 136 135 199 341 164 545 -27 161 -133 333 -265 430 -41 30 -383 225
-395 225 -3 0 -22 10 -43 23 -20 13 -68 41 -107 62 -150 81 -260 143 -525 295
-306 175 -626 357 -710 402 -30 17 -59 34 -65 38 -5 4 -39 23 -75 43 -36 19
-97 53 -137 76 -39 22 -87 49 -105 59 -18 10 -96 54 -173 97 -77 43 -157 89
-177 102 -21 12 -40 23 -42 23 -2 0 -43 23 -91 50 -48 28 -88 50 -90 50 -2 0
-25 13 -52 29 -41 25 -481 276 -583 334 -144 80 -1013 595 -1340 794 -58 36
-537 312 -650 375 -25 14 -61 34 -80 45 -19 11 -98 55 -175 98 -77 43 -248
139 -380 213 -131 74 -255 143 -275 154 -19 10 -42 23 -50 29 -13 8 -211 121
-300 172 -87 49 -292 170 -475 282 -110 67 -221 134 -247 148 -94 53 -134 75
-193 107 -33 18 -73 40 -90 50 -16 10 -50 29 -75 42 -25 14 -144 82 -265 153
-121 70 -238 138 -260 150 -22 13 -112 65 -200 115 -88 51 -180 104 -205 118
-25 14 -133 77 -240 140 -424 250 -607 357 -655 383 -27 14 -74 41 -103 58
-55 32 -154 77 -207 93 -38 11 -113 26 -117 23z"/>
<path d="M16304 5293 c-36 -7 -67 -50 -80 -111 -9 -43 -12 -361 -10 -1304 l1
-1248 623 -1 c342 -1 632 -2 645 -2 99 -4 221 38 302 103 111 89 215 267 256
435 35 147 31 350 -9 465 -37 107 -65 152 -137 222 -40 39 -164 108 -194 108
-8 0 29 41 82 92 188 175 268 325 269 503 0 81 -4 113 -21 173 -5 18 -10 33
-10 35 0 7 -17 50 -44 107 -58 125 -130 213 -227 277 -81 53 -252 105 -385
117 -33 3 -90 8 -126 12 -36 3 -230 7 -430 9 -200 2 -391 6 -424 8 -33 2 -70
2 -81 0z m951 -403 c86 -14 109 -21 130 -38 11 -10 45 -34 75 -55 68 -45 97
-87 116 -169 23 -95 25 -157 8 -215 -26 -92 -149 -205 -259 -237 -59 -17 -139
-21 -390 -16 -118 2 -260 -6 -277 -16 -3 -2 -16 8 -28 23 -20 26 -21 33 -17
332 5 312 10 380 28 392 15 9 554 8 614 -1z m-15 -1104 c19 -3 53 -9 75 -13
22 -4 43 -6 47 -5 17 4 115 -42 142 -66 40 -38 100 -129 120 -182 47 -124 10
-285 -87 -383 -75 -76 -149 -118 -234 -133 -15 -3 -39 -7 -53 -10 -14 -3 -119
-7 -235 -9 -189 -3 -319 4 -383 20 l-22 5 2 387 3 387 69 3 c39 2 71 5 73 6 5
5 447 -1 483 -7z"/>
<path d="M3386 5274 c-356 -55 -609 -261 -676 -548 -20 -89 -25 -259 -10 -351
30 -179 81 -286 185 -390 115 -116 259 -178 527 -230 473 -91 565 -129 620
-251 30 -69 36 -196 12 -263 -51 -142 -189 -201 -484 -206 -289 -5 -421 32
-652 185 l-87 58 -28 -36 c-16 -20 -65 -72 -110 -115 -75 -73 -143 -159 -143
-183 0 -5 19 -21 43 -35 23 -15 88 -57 145 -93 179 -115 326 -182 442 -199
161 -25 638 -30 730 -8 392 94 602 348 614 746 3 87 0 117 -19 185 -2 8 -15
43 -29 77 -122 295 -317 452 -631 508 -16 3 -41 7 -55 10 -30 5 -139 22 -195
30 -240 34 -358 92 -414 204 -28 53 -31 68 -38 153 -5 60 -2 72 23 119 51 93
133 157 236 185 79 21 270 11 403 -21 6 -1 17 -4 25 -8 8 -3 95 -31 194 -63
l179 -59 68 75 c38 41 69 78 69 82 0 3 6 13 13 20 7 7 23 30 35 51 43 75 23
125 -77 191 -38 25 -71 46 -75 46 -3 0 -29 11 -56 24 -69 33 -242 87 -325 101
-153 27 -322 30 -459 9z"/>
<path d="M6033 5277 c-22 -7 -38 -21 -50 -46 -17 -34 -18 -102 -18 -1291 -1
-744 3 -1267 9 -1285 18 -59 27 -63 154 -65 226 -5 231 -5 253 17 26 26 28 52
28 348 -1 132 -2 512 -3 844 l-1 603 37 -43 c47 -55 188 -265 259 -389 27 -48
116 -186 324 -505 314 -482 368 -564 443 -686 85 -138 110 -165 171 -183 72
-21 288 -7 304 20 4 8 14 14 21 14 7 0 14 6 15 13 2 6 5 586 7 1288 3 855 1
1285 -6 1303 -18 48 -61 57 -245 54 -138 -3 -165 -5 -166 -18 -1 -8 -3 -24 -4
-35 -27 -198 -36 -848 -22 -1475 4 -140 3 -260 -1 -266 -4 -6 -19 -14 -33 -17
-25 -6 -27 -4 -34 30 -14 76 -47 132 -467 788 -86 135 -158 248 -160 252 -1 5
-25 42 -52 83 -107 165 -136 209 -200 310 -94 146 -108 169 -131 207 -36 59
-75 102 -106 118 -35 19 -275 27 -326 12z"/>
<path d="M10339 5279 c-67 -14 -112 -108 -239 -504 -22 -71 -50 -150 -62 -175
-28 -62 -140 -330 -143 -344 -1 -6 -5 -20 -9 -31 -34 -91 -47 -128 -61 -180
-9 -33 -62 -184 -117 -335 -55 -151 -116 -318 -134 -370 -19 -52 -38 -104 -43
-115 -5 -11 -30 -78 -56 -150 -26 -71 -58 -157 -72 -190 -28 -66 -59 -167 -67
-221 -5 -26 -1 -39 14 -54 19 -19 31 -20 203 -17 100 2 190 7 200 11 25 12 41
47 72 160 15 55 38 127 52 160 41 99 49 119 63 156 7 19 21 54 32 78 l20 42
473 0 472 0 18 -62 c80 -288 163 -484 223 -525 31 -21 43 -22 213 -21 l179 0
0 45 c0 25 -7 73 -16 107 -14 54 -123 349 -159 431 -27 61 -65 165 -123 335
-33 96 -67 195 -75 220 -9 25 -30 83 -47 130 -47 126 -124 344 -169 478 -52
153 -85 242 -165 444 -36 91 -84 220 -106 286 -50 144 -70 179 -115 198 -38
15 -201 24 -256 13z m221 -909 c66 -193 139 -437 155 -522 2 -9 9 -27 16 -39
14 -28 56 -157 64 -202 l6 -32 -333 1 c-183 1 -336 2 -341 3 -4 0 -5 11 -2 24
2 12 6 36 9 52 2 17 9 50 16 75 7 25 13 50 14 55 4 19 18 61 66 195 27 74 65
196 84 270 20 74 47 167 61 205 27 75 85 169 97 157 4 -4 43 -113 88 -242z"/>
<path d="M13011 5280 c-45 -4 -58 -10 -75 -33 l-21 -28 0 -1291 c0 -851 3
-1292 10 -1294 6 -2 100 -5 209 -6 l200 -3 10 35 c6 21 10 210 10 487 l1 453
25 0 c14 0 138 2 275 4 225 4 306 9 385 22 14 3 43 7 65 10 118 16 265 76 357
145 45 34 138 137 167 186 58 94 127 242 121 255 -1 2 3 16 9 31 33 87 36 257
6 402 -21 101 -111 264 -193 351 -58 60 -153 128 -230 165 -191 90 -365 111
-947 113 -181 1 -354 -1 -384 -4z m769 -414 c74 -3 146 -8 160 -11 108 -21
142 -30 189 -52 107 -46 166 -112 196 -217 19 -65 22 -182 5 -247 -32 -131
-123 -231 -243 -271 -70 -22 -83 -23 -402 -23 l-330 0 0 384 -1 384 25 23 c15
14 44 26 71 29 25 4 49 7 53 9 10 2 95 0 277 -8z"/>
<path d="M19617 5282 c-90 -6 -82 118 -82 -1331 -1 -702 3 -1291 7 -1308 5
-18 18 -38 29 -44 21 -11 286 -14 344 -3 64 11 59 -91 59 1322 0 708 -3 1299
-7 1314 -4 15 -17 33 -30 40 -21 11 -205 17 -320 10z"/>
<path d="M21607 5284 c-1 -1 -24 -4 -50 -6 -56 -6 -93 -36 -102 -83 -10 -53
-6 -214 6 -255 24 -79 -13 -74 569 -71 l519 2 -15 -53 c-17 -56 -57 -126 -111
-194 -27 -34 -145 -232 -241 -404 -14 -25 -87 -143 -163 -263 -77 -120 -139
-220 -139 -223 0 -2 -16 -26 -35 -53 -19 -26 -35 -51 -35 -55 0 -4 -8 -19 -19
-34 -10 -15 -34 -52 -54 -82 -19 -30 -59 -93 -89 -140 -136 -212 -185 -299
-194 -350 -4 -19 -17 -44 -29 -56 -21 -20 -22 -27 -20 -178 1 -133 4 -159 19
-174 15 -16 78 -17 868 -17 l852 0 -2 163 c-1 139 -5 169 -22 206 -32 71 -23
70 -615 71 -549 0 -581 3 -533 41 13 10 38 39 55 64 39 57 103 159 103 165 0
3 14 28 32 57 53 88 348 572 358 588 6 8 13 22 17 30 4 8 22 38 40 67 18 29
33 55 33 58 0 3 11 22 24 43 13 20 70 116 126 212 96 163 131 219 285 455 82
126 98 171 99 281 1 101 -21 168 -58 181 -16 5 -1473 12 -1479 7z"/>
<path d="M22709 1724 c-76 -15 -126 -32 -199 -69 -66 -33 -70 -36 -150 -115
-74 -73 -110 -131 -141 -229 -20 -61 -22 -92 -25 -401 -4 -383 4 -450 71 -584
33 -68 110 -158 170 -200 184 -128 431 -146 640 -47 119 56 207 140 271 259
19 34 32 62 30 62 -2 0 3 21 11 48 19 61 30 434 14 475 -23 58 -75 64 -511 54
l-75 -2 -2 -142 -2 -143 166 0 165 0 -5 -58 c-3 -32 -12 -72 -18 -88 -22 -51
-116 -188 -138 -202 -30 -18 -84 -25 -182 -24 -158 0 -238 61 -284 214 -33
113 -37 369 -10 618 20 174 118 269 287 276 135 5 182 -19 259 -133 27 -40 59
-78 71 -84 13 -7 70 -13 136 -14 133 -1 137 2 116 89 -25 107 -56 168 -129
254 -38 45 -143 122 -207 152 -107 50 -195 59 -329 34z"/>
<path d="M9930 1719 c-116 -10 -165 -33 -253 -116 -77 -73 -146 -180 -162
-253 -14 -61 -7 -198 16 -281 44 -169 181 -282 379 -314 19 -3 59 -10 89 -16
30 -6 64 -12 75 -14 141 -17 179 -29 228 -67 63 -49 79 -150 37 -234 -20 -41
-34 -54 -83 -79 -58 -29 -64 -30 -195 -30 -156 1 -211 13 -359 82 -51 24 -99
43 -107 43 -33 0 -128 -125 -149 -195 -7 -25 59 -73 194 -138 151 -74 235 -92
425 -92 139 0 170 4 235 24 202 63 308 166 356 345 13 50 13 194 0 251 -17 72
-67 158 -128 219 -85 83 -164 120 -320 145 -38 6 -98 16 -135 23 -38 7 -70 13
-73 13 -138 24 -184 75 -183 200 1 75 3 83 28 114 50 59 184 88 322 69 47 -6
223 -65 265 -88 34 -19 168 143 168 204 0 27 -210 141 -302 164 -27 7 -100 15
-164 17 -64 3 -120 7 -123 8 -3 2 -40 0 -81 -4z"/>
<path d="M3060 1708 c-58 -3 -116 -9 -130 -12 -14 -3 -38 -8 -55 -12 -52 -11
-145 -66 -196 -116 -111 -109 -174 -251 -193 -438 -4 -30 -9 -71 -12 -90 -6
-42 -6 -342 0 -385 40 -272 74 -356 190 -470 118 -117 260 -177 410 -176 66 1
170 17 221 35 32 11 98 46 149 80 101 68 212 233 222 331 4 37 1 46 -20 62
-20 16 -38 20 -91 18 -133 -6 -192 -30 -221 -91 -20 -42 -68 -92 -100 -104
-60 -23 -207 -29 -272 -11 -107 30 -176 150 -198 346 -12 111 -11 344 2 421
37 217 154 340 320 336 134 -2 248 -70 276 -164 17 -58 33 -65 153 -69 98 -2
114 0 135 21 86 86 -114 371 -326 464 -57 25 -140 32 -264 24z"/>
<path d="M5185 1709 c-141 -19 -240 -66 -331 -157 -81 -81 -125 -161 -153
-277 -27 -108 -31 -173 -31 -425 -1 -263 6 -328 42 -435 64 -188 261 -360 459
-401 32 -6 187 -6 219 1 14 3 38 8 54 10 58 11 136 44 192 81 144 95 228 279
251 549 10 106 10 487 1 550 -21 143 -65 233 -163 331 -137 136 -338 201 -540
173z m221 -303 c90 -41 149 -120 174 -232 12 -52 17 -518 7 -569 -4 -16 -9
-46 -12 -65 -8 -47 -38 -110 -65 -139 -60 -62 -220 -99 -333 -76 -114 23 -179
108 -213 280 -12 61 -11 498 1 550 28 119 88 200 179 244 88 43 177 45 262 7z"/>
<path d="M7103 1698 c-11 -13 -25 -43 -29 -68 -5 -25 -8 -394 -9 -820 l0 -775
50 -12 c81 -20 158 -16 188 8 48 37 50 68 50 587 1 520 0 512 51 457 13 -14
90 -129 172 -255 82 -126 179 -276 216 -332 79 -123 169 -266 227 -365 50 -84
92 -111 181 -113 89 -3 99 -1 120 20 19 19 20 36 20 850 l0 830 -22 1 c-29 1
-217 1 -243 0 -21 -1 -21 -5 -20 -546 0 -300 -1 -545 -2 -545 -9 0 -136 178
-254 356 -226 340 -341 525 -414 667 -20 37 -36 67 -38 68 -1 0 -52 3 -112 5
-106 5 -112 4 -132 -18z"/>
<path d="M11824 1712 l-31 -3 2 -592 c1 -326 5 -612 10 -637 18 -110 67 -201
153 -287 65 -65 82 -78 149 -111 110 -56 179 -73 282 -74 225 -1 467 134 553
309 l33 68 3 651 3 652 -120 0 -119 0 1 -441 c1 -243 -1 -480 -5 -527 -18
-210 -96 -355 -210 -395 -48 -16 -200 -12 -255 7 -115 41 -186 169 -210 379
-12 99 -8 324 12 919 l3 85 -111 0 c-62 0 -126 -1 -143 -3z"/>
<path d="M18277 1705 c-65 -21 -62 14 -62 -870 l1 -800 54 -12 c76 -17 172
-18 206 -1 17 8 33 26 39 44 8 24 12 1330 6 1591 -1 23 -8 36 -23 44 -29 15
-178 18 -221 4z"/>
<path d="M19820 1712 c-58 -6 -69 -12 -79 -44 -7 -22 -10 -298 -9 -803 0 -650
3 -774 15 -798 20 -39 73 -59 161 -60 62 0 76 3 95 21 41 42 43 73 39 585 -3
426 -1 487 12 487 16 0 44 -37 65 -85 7 -16 81 -137 164 -267 84 -131 157
-245 162 -255 6 -10 36 -58 68 -106 31 -48 57 -90 57 -93 0 -3 8 -17 19 -32
10 -15 44 -66 75 -114 81 -125 112 -142 256 -140 49 0 67 5 77 18 10 14 13
188 13 823 0 443 -3 816 -6 829 -8 30 -49 39 -158 36 -143 -5 -146 -13 -131
-334 6 -131 10 -739 5 -760 0 -3 -8 8 -17 24 -8 16 -20 34 -25 40 -5 6 -27 40
-50 76 -23 36 -72 112 -109 170 -68 106 -184 285 -267 415 -210 326 -243 364
-315 366 -23 0 -53 1 -67 2 -14 1 -36 1 -50 -1z"/>
<path d="M16573 1693 c-4 -1 -125 -4 -268 -6 -146 -2 -271 -8 -285 -14 -24
-10 -25 -14 -27 -106 l-1 -97 188 2 c127 1 197 -2 216 -11 60 -24 58 5 60
-726 1 -369 2 -675 3 -680 1 -8 195 -13 232 -6 4 0 7 295 7 654 0 358 1 677 1
709 l1 56 198 1 c108 0 207 0 219 0 20 1 21 5 21 97 l-1 96 -36 16 c-30 14
-78 16 -278 17 -133 0 -246 -1 -250 -2z"/>
<path d="M14244 1682 c-6 -4 -11 -39 -11 -82 0 -70 -10 -819 -18 -1322 -3
-197 -1 -218 13 -219 22 -1 336 -6 727 -10 l310 -3 0 114 0 115 -388 1 c-213
0 -390 4 -394 8 -5 4 -8 53 -9 109 -1 56 -5 313 -8 572 -4 259 -8 526 -9 595
l-2 125 -100 2 c-55 1 -105 -1 -111 -5z"/>
</g>
</svg>
